<?xml version="1.0" encoding="utf-8"?>
<!-- Generator: Adobe Illustrator 28.2.0, SVG Export Plug-In . SVG Version: 6.00 Build 0)  -->
<svg version="1.1" id="Layer_1" xmlns="http://www.w3.org/2000/svg" xmlns:xlink="http://www.w3.org/1999/xlink" x="0px" y="0px"
	 viewBox="0 0 1665.88 580.76" style="enable-background:new 0 0 1665.88 580.76;" xml:space="preserve">
<style type="text/css">
	.st0{fill:url(#SVGID_1_);}
	.st1{fill:url(#SVGID_00000142136981898074410460000012791268164021887887_);}
	.st2{fill:#000835;}
	.st3{fill:url(#SVGID_00000052811793620611338270000013695180257727043507_);}
	.st4{fill:url(#SVGID_00000152962349141842948920000016596469566511894176_);}
	.st5{fill:url(#SVGID_00000176037549985911319190000000498403052352081309_);}
	.st6{fill:url(#SVGID_00000093864176722983081230000000968749142547684014_);}
	.st7{fill:url(#SVGID_00000040575427397748994040000013896481331276922508_);}
	.st8{fill:url(#SVGID_00000132070417277438883650000017637180317322035858_);}
	.st9{fill:url(#SVGID_00000029021308628468620030000013048442190818656700_);}
	.st10{fill:url(#SVGID_00000021093205641955291660000001555055513135780278_);}
	.st11{fill:url(#SVGID_00000059269363966344623930000005373035191425156260_);}
	.st12{fill:url(#SVGID_00000103255581350332528020000004927836128446141091_);}
	.st13{fill:url(#SVGID_00000137814454823399343070000005934374253167165346_);}
	.st14{fill:url(#SVGID_00000039128137519714337700000016721724797468001922_);}
	.st15{fill:url(#SVGID_00000164509744875521242280000009529530850027059903_);}
	.st16{fill:url(#SVGID_00000129202978841052329450000015929664053929188797_);}
	.st17{fill:url(#SVGID_00000014626357865989957360000013287170542298966403_);}
	.st18{fill:url(#SVGID_00000182512112452029107220000011470040129274943107_);}
	.st19{fill:url(#SVGID_00000049916447899074397880000004827833061876099200_);}
	.st20{fill:url(#SVGID_00000006665762069880644010000015864532570996933544_);}
	.st21{fill:url(#SVGID_00000067232531406461715080000006339486334395857324_);}
	.st22{fill:url(#SVGID_00000007415642724003202070000003392673301164446860_);}
	.st23{fill:url(#SVGID_00000112630578274436370350000008729933913199468425_);}
	.st24{fill:url(#SVGID_00000041977068627653773910000012985070443895584908_);}
	.st25{fill:url(#SVGID_00000101079904382866053250000014116125184813159315_);}
	.st26{fill:url(#SVGID_00000163755351331880574150000018334505009820695703_);}
	.st27{fill:url(#SVGID_00000123443252469050734090000006172016016423839370_);}
	.st28{fill:url(#SVGID_00000031190512035183377580000017921472244177424539_);}
	.st29{fill:url(#SVGID_00000116202253606062537640000001235516312930019518_);}
	.st30{fill:url(#SVGID_00000024692063908509648280000003464678582589578930_);}
	.st31{fill:url(#SVGID_00000044890822197610229910000012223926458199050661_);}
	.st32{fill:url(#SVGID_00000058578569967118031410000008879944732747209882_);}
	.st33{fill:url(#SVGID_00000154385009788589647610000009381866805154554549_);}
	.st34{fill:url(#SVGID_00000148654792892777947990000005906094318342251673_);}
	.st35{fill:url(#SVGID_00000169558668747781151410000016008987353325698178_);}
	.st36{fill:url(#SVGID_00000152223967632291780990000016057125696268865947_);}
	.st37{fill:url(#SVGID_00000096017814247883742870000004889148234831961779_);}
	.st38{fill:url(#SVGID_00000152264454201634176330000013605572607246413449_);}
	.st39{fill:url(#SVGID_00000154397345241988746250000003113982166957601977_);}
	.st40{fill:url(#SVGID_00000075149395102116094570000009239383967009382803_);}
	.st41{fill:url(#SVGID_00000064311458250932618910000002735431692120984210_);}
	.st42{fill:url(#SVGID_00000040559598683431886100000012827131510019267475_);}
	.st43{fill:url(#SVGID_00000150783736361721191640000010195462788685947793_);}
	.st44{fill:url(#SVGID_00000085247497391198382010000004152795365818400413_);}
	.st45{fill:url(#SVGID_00000166638986990045378990000001595048388517532094_);}
	.st46{fill:url(#SVGID_00000152223045686987794280000010837640054582404516_);}
	.st47{fill:url(#SVGID_00000113330735074750883150000014602141732638363803_);}
	.st48{fill:url(#SVGID_00000046326014787880476550000014086044591032418238_);}
	.st49{fill:url(#SVGID_00000089549908966228726500000000722520470902977941_);}
	.st50{fill:url(#SVGID_00000057845539723323605020000015793198867844571522_);}
	.st51{fill:url(#SVGID_00000088845941760496047900000018076371167597888654_);}
	.st52{fill:url(#SVGID_00000152249870139563273470000014187187790306849976_);}
	.st53{fill:url(#SVGID_00000016040552719826661630000017506183938415964351_);}
	.st54{fill:url(#SVGID_00000117668785226093029030000006273517178708970407_);}
	.st55{fill:url(#SVGID_00000095298431362685461970000011262797121779458201_);}
	.st56{fill:url(#SVGID_00000080196752933712685860000015239422269273983884_);}
	.st57{fill:url(#SVGID_00000135675037163015274660000010773710632229925310_);}
	.st58{fill:url(#SVGID_00000026882174881144470270000010063554748087543460_);}
	.st59{fill:url(#SVGID_00000092426489004496200530000000508789228876744882_);}
	.st60{fill:url(#SVGID_00000137111729769942842170000004064277924599646868_);}
	.st61{fill:url(#SVGID_00000147202059835227323460000000313093285134751153_);}
	.st62{fill:url(#SVGID_00000016797469104051460360000008646299314306532491_);}
	.st63{fill:url(#SVGID_00000077288685771812003470000003095727868131814063_);}
	.st64{fill:url(#SVGID_00000011011570598886515650000012060132865713038776_);}
	.st65{fill:url(#SVGID_00000077316327186638403610000006261799531679288705_);}
	.st66{fill:url(#SVGID_00000100366791961177731570000002497214762898976676_);}
	.st67{fill:url(#SVGID_00000014594835673899322590000003413614209074016696_);}
	.st68{fill:url(#SVGID_00000036933747769991325120000004051116805379810950_);}
	.st69{fill:url(#SVGID_00000018917066732791343080000013102801119439005074_);}
	.st70{fill:url(#SVGID_00000098918372999753888810000015884590866039888012_);}
	.st71{fill:url(#SVGID_00000041976949939674591160000007354436688994913928_);}
</style>
<g>
	<g>
		<linearGradient id="SVGID_1_" gradientUnits="userSpaceOnUse" x1="134.6745" y1="255.2605" x2="1357.5116" y2="533.4166">
			<stop  offset="0" style="stop-color:#2B6CF5"/>
			<stop  offset="1" style="stop-color:#A355F6"/>
		</linearGradient>
		<polygon class="st0" points="286.84,301.98 436.61,204.78 436.61,299.02 356.94,340.28 429.27,391.48 361.44,426 286.84,385.87 		
			"/>
		
			<linearGradient id="SVGID_00000062875648228683631140000007659101354598751130_" gradientUnits="userSpaceOnUse" x1="156.7526" y1="158.826" x2="1379.5896" y2="436.9821">
			<stop  offset="0" style="stop-color:#2B6CF5"/>
			<stop  offset="1" style="stop-color:#A355F6"/>
		</linearGradient>
		<polygon style="fill:url(#SVGID_00000062875648228683631140000007659101354598751130_);" points="281.94,181.81 352.94,150.51 
			352.94,256.39 281.94,215.58 		"/>
		
			<linearGradient id="SVGID_00000175298031305616076650000010948796590147356067_" gradientUnits="userSpaceOnUse" x1="138.2657" y1="240.0983" x2="1361.1028" y2="518.2544">
			<stop  offset="0" style="stop-color:#2B6CF5"/>
			<stop  offset="1" style="stop-color:#A355F6"/>
		</linearGradient>
		<polygon style="fill:url(#SVGID_00000175298031305616076650000010948796590147356067_);" points="227.24,218.62 293.18,259.58 
			227.24,302.05 		"/>
	</g>
	<g>
		
			<linearGradient id="SVGID_00000039100621477091603990000014027428763583673253_" gradientUnits="userSpaceOnUse" x1="197.1782" y1="-18.8941" x2="1420.0153" y2="259.2619">
			<stop  offset="0" style="stop-color:#2B6CF5"/>
			<stop  offset="1" style="stop-color:#A355F6"/>
		</linearGradient>
		<path style="fill:url(#SVGID_00000039100621477091603990000014027428763583673253_);" d="M1385.79,304.11
			c-3.38-14.02-1.47-29.16-13.18-40.45c-11.45-11.03-26.2-9.46-40.08-12.4c3.2-0.45,6.4-0.94,9.6-1.34
			c3.48-0.44,6.98-0.72,10.45-1.2c16.79-2.32,28.14-14.03,30.07-30.9c0.73-6.35,1.6-12.68,3.07-19c0.91,7.39,1.57,14.82,2.79,22.15
			c2.44,14.62,14.02,25.64,28.68,27.61c7.12,0.95,14.26,1.73,21.44,3.16c-7.18,0.9-14.37,1.76-21.54,2.71
			c-14.62,1.95-26.21,13.01-28.61,27.66C1387.29,289.4,1386.67,296.78,1385.79,304.11z"/>
		<g>
			
				<linearGradient id="SVGID_00000108276912446710296900000004355161598878143874_" gradientUnits="userSpaceOnUse" x1="167.2829" y1="112.5324" x2="1390.12" y2="390.6884">
				<stop  offset="0" style="stop-color:#2B6CF5"/>
				<stop  offset="1" style="stop-color:#A355F6"/>
			</linearGradient>
			<path style="fill:url(#SVGID_00000108276912446710296900000004355161598878143874_);" d="M536.6,233.37v-47.86h-31.08v-14.36
				h81.35v14.36h-31.14v47.86H536.6z"/>
			
				<linearGradient id="SVGID_00000179646853535906762240000015562045544588465068_" gradientUnits="userSpaceOnUse" x1="170.8742" y1="96.7443" x2="1393.7113" y2="374.9004">
				<stop  offset="0" style="stop-color:#2B6CF5"/>
				<stop  offset="1" style="stop-color:#A355F6"/>
			</linearGradient>
			<path style="fill:url(#SVGID_00000179646853535906762240000015562045544588465068_);" d="M610.77,233.37
				c-5.31,0-9.82-1.87-13.52-5.61c-3.74-3.74-5.61-8.25-5.61-13.52v-23.96c0-5.27,1.87-9.78,5.61-13.52
				c3.74-3.74,8.25-5.61,13.52-5.61h50.27v14.36h-45.5c-1.31,0-2.43,0.47-3.37,1.4c-0.94,0.94-1.4,2.06-1.4,3.37v4.82h49.09v14.36
				h-49.09v4.77c0,1.31,0.47,2.45,1.4,3.42c0.93,0.9,2.06,1.35,3.37,1.35h46.68v14.36H610.77z"/>
			
				<linearGradient id="SVGID_00000000209091458425174900000010020561753188018078_" gradientUnits="userSpaceOnUse" x1="174.7285" y1="79.7999" x2="1397.5656" y2="357.956">
				<stop  offset="0" style="stop-color:#2B6CF5"/>
				<stop  offset="1" style="stop-color:#A355F6"/>
			</linearGradient>
			<path style="fill:url(#SVGID_00000000209091458425174900000010020561753188018078_);" d="M738.8,234.55
				c-5.27,0-9.78-1.85-13.52-5.55c-0.15-0.11-0.28-0.24-0.39-0.39h-0.06l-0.67-0.84c-0.15-0.15-0.28-0.3-0.39-0.45l-22.89-27.44
				l-8.64-10.38c-0.11-0.07-0.24-0.15-0.39-0.22c-0.3-0.11-0.6-0.17-0.9-0.17c-0.67,0-1.25,0.24-1.74,0.73
				c-0.45,0.45-0.67,1.01-0.67,1.68v41.85H669.4v-46.68c0-4.6,1.63-8.55,4.88-11.84c3.29-3.25,7.24-4.88,11.84-4.88h1.23
				c5.27,0,9.78,1.87,13.52,5.61c0.11,0.11,0.22,0.22,0.34,0.34h0.06l0.73,0.84c0.11,0.15,0.22,0.3,0.34,0.45l31.53,37.81
				c0.11,0.11,0.24,0.19,0.39,0.23c0.3,0.11,0.62,0.17,0.95,0.17c0.64,0,1.2-0.22,1.68-0.67c0.49-0.49,0.73-1.05,0.73-1.68v-41.91
				h19.13v46.68c0,4.64-1.65,8.58-4.94,11.84c-3.25,3.25-7.2,4.88-11.84,4.88H738.8z"/>
			
				<linearGradient id="SVGID_00000003094987894563148130000013974052915016371903_" gradientUnits="userSpaceOnUse" x1="179.4981" y1="58.8317" x2="1402.3352" y2="336.9877">
				<stop  offset="0" style="stop-color:#2B6CF5"/>
				<stop  offset="1" style="stop-color:#A355F6"/>
			</linearGradient>
			<path style="fill:url(#SVGID_00000003094987894563148130000013974052915016371903_);" d="M835.76,234.55
				c-5.27,0-9.78-1.85-13.52-5.55c-0.15-0.11-0.28-0.24-0.39-0.39h-0.06l-0.67-0.84c-0.15-0.15-0.28-0.3-0.39-0.45l-22.89-27.44
				l-8.64-10.38c-0.11-0.07-0.24-0.15-0.39-0.22c-0.3-0.11-0.6-0.17-0.9-0.17c-0.67,0-1.25,0.24-1.74,0.73
				c-0.45,0.45-0.67,1.01-0.67,1.68v41.85h-19.13v-46.68c0-4.6,1.63-8.55,4.88-11.84c3.29-3.25,7.24-4.88,11.84-4.88h1.23
				c5.27,0,9.78,1.87,13.52,5.61c0.11,0.11,0.22,0.22,0.34,0.34h0.06l0.73,0.84c0.11,0.15,0.22,0.3,0.34,0.45l31.53,37.81
				c0.11,0.11,0.24,0.19,0.39,0.23c0.3,0.11,0.62,0.17,0.95,0.17c0.64,0,1.2-0.22,1.68-0.67c0.49-0.49,0.73-1.05,0.73-1.68v-41.91
				h19.13v46.68c0,4.64-1.65,8.58-4.94,11.84c-3.25,3.25-7.2,4.88-11.84,4.88H835.76z"/>
			
				<linearGradient id="SVGID_00000068657155178163537350000007220563276669036988_" gradientUnits="userSpaceOnUse" x1="182.5895" y1="45.2411" x2="1405.4265" y2="323.3972">
				<stop  offset="0" style="stop-color:#2B6CF5"/>
				<stop  offset="1" style="stop-color:#A355F6"/>
			</linearGradient>
			<path style="fill:url(#SVGID_00000068657155178163537350000007220563276669036988_);" d="M863.3,233.37v-62.22h19.13v62.22H863.3
				z"/>
			
				<linearGradient id="SVGID_00000026160878434565562990000017395422879929283510_" gradientUnits="userSpaceOnUse" x1="185.2986" y1="33.3312" x2="1408.1356" y2="311.4873">
				<stop  offset="0" style="stop-color:#2B6CF5"/>
				<stop  offset="1" style="stop-color:#A355F6"/>
			</linearGradient>
			<path style="fill:url(#SVGID_00000026160878434565562990000017395422879929283510_);" d="M889.67,233.37v-14.36h56.22
				c1.31,0,2.43-0.45,3.37-1.35c0.93-0.97,1.4-2.11,1.4-3.42c0-1.31-0.47-2.43-1.4-3.37c-0.94-0.93-2.06-1.4-3.37-1.4h-44.32
				c-2.62,0-4.88-0.93-6.79-2.8c-1.83-1.87-2.75-4.13-2.75-6.79v-19.13c0-2.62,0.92-4.88,2.75-6.79c1.91-1.87,4.17-2.8,6.79-2.8
				h64.63v14.36h-50.27c-1.31,0-2.43,0.47-3.37,1.4c-0.94,0.94-1.4,2.06-1.4,3.37c0,1.35,0.47,2.49,1.4,3.42
				c0.93,0.94,2.06,1.4,3.37,1.4h44.32c2.62,0,4.86,0.94,6.73,2.81c1.87,1.87,2.81,4.12,2.81,6.73v19.19c0,2.62-0.94,4.88-2.81,6.79
				c-1.87,1.83-4.12,2.75-6.73,2.75H889.67z"/>
			
				<linearGradient id="SVGID_00000073695914387455914650000004751287177188130221_" gradientUnits="userSpaceOnUse" x1="189.5383" y1="14.6928" x2="1412.3754" y2="292.8488">
				<stop  offset="0" style="stop-color:#2B6CF5"/>
				<stop  offset="1" style="stop-color:#A355F6"/>
			</linearGradient>
			<path style="fill:url(#SVGID_00000073695914387455914650000004751287177188130221_);" d="M975.85,233.37v-14.36h56.22
				c1.31,0,2.43-0.45,3.37-1.35c0.93-0.97,1.4-2.11,1.4-3.42c0-1.31-0.47-2.43-1.4-3.37c-0.94-0.93-2.06-1.4-3.37-1.4h-44.32
				c-2.62,0-4.88-0.93-6.79-2.8c-1.83-1.87-2.75-4.13-2.75-6.79v-19.13c0-2.62,0.92-4.88,2.75-6.79c1.91-1.87,4.17-2.8,6.79-2.8
				h64.63v14.36h-50.27c-1.31,0-2.43,0.47-3.37,1.4c-0.94,0.94-1.4,2.06-1.4,3.37c0,1.35,0.47,2.49,1.4,3.42
				c0.93,0.94,2.06,1.4,3.37,1.4h44.32c2.62,0,4.86,0.94,6.73,2.81c1.87,1.87,2.81,4.12,2.81,6.73v19.19c0,2.62-0.94,4.88-2.81,6.79
				c-1.87,1.83-4.11,2.75-6.73,2.75H975.85z"/>
			
				<linearGradient id="SVGID_00000109717930201605448840000014188324332295051191_" gradientUnits="userSpaceOnUse" x1="192.482" y1="1.7515" x2="1415.3191" y2="279.9076">
				<stop  offset="0" style="stop-color:#2B6CF5"/>
				<stop  offset="1" style="stop-color:#A355F6"/>
			</linearGradient>
			<path style="fill:url(#SVGID_00000109717930201605448840000014188324332295051191_);" d="M1064.39,233.37v-62.22h19.13v62.22
				H1064.39z"/>
			
				<linearGradient id="SVGID_00000023973594606188705560000013294820810946130062_" gradientUnits="userSpaceOnUse" x1="195.5734" y1="-11.839" x2="1418.4105" y2="266.317">
				<stop  offset="0" style="stop-color:#2B6CF5"/>
				<stop  offset="1" style="stop-color:#A355F6"/>
			</linearGradient>
			<path style="fill:url(#SVGID_00000023973594606188705560000013294820810946130062_);" d="M1162.52,234.55
				c-5.27,0-9.78-1.85-13.52-5.55c-0.15-0.11-0.28-0.24-0.39-0.39h-0.06l-0.67-0.84c-0.15-0.15-0.28-0.3-0.39-0.45l-22.89-27.44
				l-8.64-10.38c-0.11-0.07-0.24-0.15-0.39-0.22c-0.3-0.11-0.6-0.17-0.9-0.17c-0.67,0-1.25,0.24-1.74,0.73
				c-0.45,0.45-0.67,1.01-0.67,1.68v41.85h-19.13v-46.68c0-4.6,1.63-8.55,4.88-11.84c3.29-3.25,7.24-4.88,11.84-4.88h1.23
				c5.27,0,9.78,1.87,13.52,5.61c0.11,0.11,0.22,0.22,0.34,0.34h0.06l0.73,0.84c0.11,0.15,0.22,0.3,0.34,0.45l31.53,37.81
				c0.11,0.11,0.24,0.19,0.39,0.23c0.3,0.11,0.62,0.17,0.95,0.17c0.64,0,1.2-0.22,1.68-0.67c0.49-0.49,0.73-1.05,0.73-1.68v-41.91
				h19.13v46.68c0,4.64-1.65,8.58-4.94,11.84c-3.25,3.25-7.2,4.88-11.84,4.88H1162.52z"/>
			
				<linearGradient id="SVGID_00000111907882326478774270000003199406256755640767_" gradientUnits="userSpaceOnUse" x1="200.3143" y1="-32.6811" x2="1423.1514" y2="245.4749">
				<stop  offset="0" style="stop-color:#2B6CF5"/>
				<stop  offset="1" style="stop-color:#A355F6"/>
			</linearGradient>
			<path style="fill:url(#SVGID_00000111907882326478774270000003199406256755640767_);" d="M1209.2,233.37
				c-5.31,0-9.82-1.87-13.52-5.61c-3.74-3.74-5.61-8.25-5.61-13.52v-23.96c0-5.27,1.87-9.78,5.61-13.52
				c3.74-3.74,8.25-5.61,13.52-5.61h50.27v14.36h-45.5c-1.31,0-2.43,0.47-3.37,1.4c-0.94,0.94-1.4,2.06-1.4,3.37v4.82h49.09v14.36
				h-49.09v4.77c0,1.31,0.47,2.45,1.4,3.42c0.93,0.9,2.06,1.35,3.37,1.35h46.68v14.36H1209.2z"/>
			
				<linearGradient id="SVGID_00000036220335155694340470000003276407883786980788_" gradientUnits="userSpaceOnUse" x1="206.5275" y1="-59.9957" x2="1429.3645" y2="218.1604">
				<stop  offset="0" style="stop-color:#2B6CF5"/>
				<stop  offset="1" style="stop-color:#A355F6"/>
			</linearGradient>
			<path style="fill:url(#SVGID_00000036220335155694340470000003276407883786980788_);" d="M1268.5,195.1l5.44-9.59h-6.12v-14.36
				h14.36v14.36l-5.5,9.59H1268.5z"/>
			
				<linearGradient id="SVGID_00000116211984351808650990000003271641881527480236_" gradientUnits="userSpaceOnUse" x1="204.9622" y1="-53.1143" x2="1427.7993" y2="225.0417">
				<stop  offset="0" style="stop-color:#2B6CF5"/>
				<stop  offset="1" style="stop-color:#A355F6"/>
			</linearGradient>
			<path style="fill:url(#SVGID_00000116211984351808650990000003271641881527480236_);" d="M1289.37,233.37v-14.36h56.22
				c1.31,0,2.43-0.45,3.37-1.35c0.93-0.97,1.4-2.11,1.4-3.42c0-1.31-0.47-2.43-1.4-3.37c-0.94-0.93-2.06-1.4-3.37-1.4h-44.32
				c-2.62,0-4.88-0.93-6.79-2.8c-1.83-1.87-2.75-4.13-2.75-6.79v-19.13c0-2.62,0.92-4.88,2.75-6.79c1.91-1.87,4.17-2.8,6.79-2.8
				h64.63v14.36h-50.27c-1.31,0-2.43,0.47-3.37,1.4c-0.93,0.94-1.4,2.06-1.4,3.37c0,1.35,0.47,2.49,1.4,3.42
				c0.93,0.94,2.06,1.4,3.37,1.4h44.32c2.62,0,4.86,0.94,6.73,2.81c1.87,1.87,2.81,4.12,2.81,6.73v19.19c0,2.62-0.94,4.88-2.81,6.79
				c-1.87,1.83-4.11,2.75-6.73,2.75H1289.37z"/>
		</g>
		<g>
			
				<linearGradient id="SVGID_00000090280315295881370680000008203984214784527260_" gradientUnits="userSpaceOnUse" x1="138.6607" y1="238.362" x2="1361.4978" y2="516.5181">
				<stop  offset="0" style="stop-color:#2B6CF5"/>
				<stop  offset="1" style="stop-color:#A355F6"/>
			</linearGradient>
			<path style="fill:url(#SVGID_00000090280315295881370680000008203984214784527260_);" d="M501.51,406.54v-30.9h120.93
				c2.82,0,5.23-0.97,7.24-2.9c2.01-2.09,3.02-4.54,3.02-7.36c0-2.82-1.01-5.23-3.02-7.24c-2.01-2.01-4.43-3.02-7.24-3.02H527.1
				c-5.63,0-10.5-2.01-14.6-6.03c-3.94-4.02-5.91-8.89-5.91-14.6v-41.15c0-5.63,1.97-10.5,5.91-14.6c4.1-4.02,8.97-6.03,14.6-6.03
				h139.03v30.9H558c-2.82,0-5.23,1.01-7.24,3.02c-2.01,2.01-3.02,4.43-3.02,7.24c0,2.9,1.01,5.35,3.02,7.36
				c2.01,2.01,4.42,3.02,7.24,3.02h95.34c5.63,0,10.46,2.01,14.48,6.03c4.02,4.02,6.03,8.85,6.03,14.48v41.27
				c0,5.63-2.01,10.5-6.03,14.6c-4.02,3.94-8.85,5.91-14.48,5.91H501.51z"/>
			
				<linearGradient id="SVGID_00000103266350127798552250000003097933560567149958_" gradientUnits="userSpaceOnUse" x1="147.7136" y1="198.5633" x2="1370.5507" y2="476.7194">
				<stop  offset="0" style="stop-color:#2B6CF5"/>
				<stop  offset="1" style="stop-color:#A355F6"/>
			</linearGradient>
			<path style="fill:url(#SVGID_00000103266350127798552250000003097933560567149958_);" d="M691.96,406.54V272.7h149.29
				c5.63,0,10.5,2.01,14.6,6.03c4.02,4.02,6.03,8.89,6.03,14.6v41.15c0,5.71-2.01,10.58-6.03,14.6c-4.1,4.02-8.97,6.03-14.6,6.03
				H733.11v51.41H691.96z M810.35,324.24c2.82,0,5.23-1.01,7.24-3.02c2.01-2.01,3.02-4.47,3.02-7.36c0-2.82-1.01-5.23-3.02-7.24
				c-2.01-2.01-4.43-3.02-7.24-3.02h-77.24v20.64H810.35z"/>
			
				<linearGradient id="SVGID_00000055671101785075286550000018210806996748658328_" gradientUnits="userSpaceOnUse" x1="154.6667" y1="167.9962" x2="1377.5038" y2="446.1523">
				<stop  offset="0" style="stop-color:#2B6CF5"/>
				<stop  offset="1" style="stop-color:#A355F6"/>
			</linearGradient>
			<path style="fill:url(#SVGID_00000055671101785075286550000018210806996748658328_);" d="M850.18,406.54l64.45-112.96
				c2.01-4.1,4.75-7.88,8.21-11.34c8.04-8.04,17.78-12.07,29.21-12.07c11.34,0,21.04,4.02,29.09,12.07
				c3.46,3.46,6.19,7.24,8.21,11.34l64.57,112.96h-45.26l-16.17-28.24h-80.98l-16.17,28.24H850.18z M979.19,355.13l-24.62-43.09
				c-0.72-0.48-1.57-0.72-2.53-0.72c-1.05,0-1.93,0.24-2.66,0.72l-24.62,43.09H979.19z"/>
			
				<linearGradient id="SVGID_00000156582884319231167770000011903433750903609000_" gradientUnits="userSpaceOnUse" x1="166.4004" y1="116.412" x2="1389.2374" y2="394.5681">
				<stop  offset="0" style="stop-color:#2B6CF5"/>
				<stop  offset="1" style="stop-color:#A355F6"/>
			</linearGradient>
			<path style="fill:url(#SVGID_00000156582884319231167770000011903433750903609000_);" d="M1096.14,406.54
				c-11.43,0-21.12-4.02-29.09-12.07c-8.05-8.04-12.07-17.74-12.07-29.09v-51.53c0-11.34,4.02-21.04,12.07-29.09
				c8.04-8.04,17.74-12.07,29.09-12.07h108.14v30.9h-87.5c-5.71,0-10.58,2.01-14.6,6.03c-4.02,4.02-6.03,8.89-6.03,14.6v30.9
				c0,5.63,2.01,10.5,6.03,14.6c4.02,3.94,8.89,5.91,14.6,5.91h87.5v30.9H1096.14z"/>
			
				<linearGradient id="SVGID_00000029726497970237043360000002821364623135253895_" gradientUnits="userSpaceOnUse" x1="174.5048" y1="80.7831" x2="1397.3419" y2="358.9392">
				<stop  offset="0" style="stop-color:#2B6CF5"/>
				<stop  offset="1" style="stop-color:#A355F6"/>
			</linearGradient>
			<path style="fill:url(#SVGID_00000029726497970237043360000002821364623135253895_);" d="M1260.87,406.54
				c-11.42,0-21.12-4.02-29.08-12.07c-8.05-8.04-12.07-17.74-12.07-29.09v-51.53c0-11.34,4.02-21.04,12.07-29.09
				c8.04-8.04,17.74-12.07,29.08-12.07h108.14v30.9h-97.88c-2.82,0-5.23,1.01-7.24,3.02c-2.01,2.01-3.02,4.43-3.02,7.24v10.38h105.6
				v30.9h-105.6v10.26c0,2.82,1.01,5.27,3.02,7.36c2.01,1.93,4.42,2.9,7.24,2.9h100.41v30.9H1260.87z"/>
		</g>
	</g>
	
		<linearGradient id="SVGID_00000168826368140171466880000013241035982154874806_" gradientUnits="userSpaceOnUse" x1="144.0743" y1="214.5626" x2="1366.9114" y2="492.7187">
		<stop  offset="0" style="stop-color:#2B6CF5"/>
		<stop  offset="1" style="stop-color:#A355F6"/>
	</linearGradient>
	
		<rect x="461.81" y="152.46" style="fill:url(#SVGID_00000168826368140171466880000013241035982154874806_);" width="12.46" height="271.6"/>
</g>
</svg>
