<?xml version="1.0" encoding="utf-8"?>
<!-- Generator: Adobe Illustrator 28.2.0, SVG Export Plug-In . SVG Version: 6.00 Build 0)  -->
<svg version="1.1" id="Layer_1" xmlns="http://www.w3.org/2000/svg" xmlns:xlink="http://www.w3.org/1999/xlink" x="0px" y="0px"
	 viewBox="0 0 1665.88 1137.88" style="enable-background:new 0 0 1665.88 1137.88;" xml:space="preserve">
<style type="text/css">
	.st0{fill:url(#SVGID_1_);}
	.st1{fill:url(#SVGID_00000017478030676373727170000017962195122945127315_);}
	.st2{fill:#000835;}
	.st3{fill:url(#SVGID_00000075875002694982431000000012846717590672609681_);}
	.st4{fill:url(#SVGID_00000160874755655927890340000003489899982801320601_);}
	.st5{fill:url(#SVGID_00000083089015520765155990000009774969266643866287_);}
	.st6{fill:url(#SVGID_00000177478063169745540250000003982472487242739106_);}
	.st7{fill:url(#SVGID_00000104695301249495655630000014171508751019383432_);}
	.st8{fill:url(#SVGID_00000108276089052145950830000005447848351407459985_);}
	.st9{fill:url(#SVGID_00000135668647919354189860000010865244192514592149_);}
	.st10{fill:url(#SVGID_00000016036539162948185760000010754364798562035349_);}
	.st11{fill:url(#SVGID_00000122714439603711259490000005170023442148966819_);}
	.st12{fill:url(#SVGID_00000113335245975863203290000015127456833071238290_);}
	.st13{fill:url(#SVGID_00000063630703390397188110000006033975822384459177_);}
	.st14{fill:url(#SVGID_00000096019404352564466340000015933227023650463891_);}
	.st15{fill:url(#SVGID_00000034087232287702828160000018440116694062052282_);}
	.st16{fill:url(#SVGID_00000111160306312901882900000006717645848816990652_);}
	.st17{fill:url(#SVGID_00000149357964101277691800000016425000663620774288_);}
	.st18{fill:url(#SVGID_00000163769156776078044510000001681598656031985578_);}
	.st19{fill:url(#SVGID_00000172431240403604087260000008877313946041699257_);}
	.st20{fill:url(#SVGID_00000127726118947915049290000006478317606327352744_);}
	.st21{fill:url(#SVGID_00000077297259972475542630000006155787787627720854_);}
	.st22{fill:url(#SVGID_00000161609730612933814120000010526766543855930258_);}
	.st23{fill:url(#SVGID_00000181053795952148478230000011144402722346092211_);}
	.st24{fill:url(#SVGID_00000062177276756371721890000001201565444368347266_);}
	.st25{fill:url(#SVGID_00000088103041790570748950000017930869328779282328_);}
	.st26{fill:url(#SVGID_00000111175493316479902130000000534481142282188190_);}
	.st27{fill:url(#SVGID_00000007409136762043805340000013181632844325206927_);}
	.st28{fill:url(#SVGID_00000116233641975777842660000001905828197069288595_);}
	.st29{fill:url(#SVGID_00000017501973600727828420000015925030424155761066_);}
	.st30{fill:url(#SVGID_00000010989404763601643420000012735356150097725314_);}
	.st31{fill:url(#SVGID_00000133530416943336837390000004588130437685759654_);}
	.st32{fill:url(#SVGID_00000062872215346158618130000012617059546684638633_);}
	.st33{fill:url(#SVGID_00000013168795703522743600000004040314845013215161_);}
	.st34{fill:url(#SVGID_00000021811691366890355330000008950449996485834429_);}
	.st35{fill:url(#SVGID_00000122680566700328556410000013393059651601112250_);}
	.st36{fill:url(#SVGID_00000081618184030373261740000001560692855232692620_);}
	.st37{fill:url(#SVGID_00000095315383196089523030000006474894659953351342_);}
	.st38{fill:url(#SVGID_00000108286806137123485230000012474108724956129929_);}
	.st39{fill:url(#SVGID_00000047781071447862834220000017538735023101076104_);}
	.st40{fill:url(#SVGID_00000003826518034835740950000002234886897005001866_);}
	.st41{fill:url(#SVGID_00000003073834510277716360000015895495330092766096_);}
	.st42{fill:url(#SVGID_00000128482079977993127130000013399616629010885526_);}
	.st43{fill:url(#SVGID_00000017475934089086225700000011127663516798086817_);}
	.st44{fill:url(#SVGID_00000098215753581894284830000008058705265531065788_);}
	.st45{fill:url(#SVGID_00000178922090212041275290000000369168006871882915_);}
	.st46{fill:url(#SVGID_00000161629353922817117970000013806331951873676220_);}
	.st47{fill:url(#SVGID_00000049920318903809942570000014880442218652040120_);}
	.st48{fill:url(#SVGID_00000133525958681172832950000000619339499569106360_);}
	.st49{fill:url(#SVGID_00000062890954607770420330000005690227029913169084_);}
	.st50{fill:url(#SVGID_00000111181527099611994980000001045792596368200859_);}
	.st51{fill:url(#SVGID_00000085935387289569503820000006871510669479712897_);}
	.st52{fill:url(#SVGID_00000067945639266712208520000002837757498406834087_);}
	.st53{fill:url(#SVGID_00000176754435334440927920000008554220518860648104_);}
	.st54{fill:url(#SVGID_00000096059112408250076800000000895664481215744932_);}
	.st55{fill:url(#SVGID_00000162349218513081760930000004760385948981653380_);}
	.st56{fill:url(#SVGID_00000094577370913945833910000014094603167123222160_);}
	.st57{fill:url(#SVGID_00000076597704111060360150000000454123487052522893_);}
	.st58{fill:url(#SVGID_00000119804412010505915260000002380807978108707723_);}
	.st59{fill:url(#SVGID_00000004517947145520785040000004529439563822657206_);}
	.st60{fill:url(#SVGID_00000047022259858383810460000007794348330102249382_);}
	.st61{fill:url(#SVGID_00000000931636405575955690000008556126992872789148_);}
	.st62{fill:url(#SVGID_00000160890414893181579760000007619850576398902450_);}
	.st63{fill:url(#SVGID_00000122716113893976197790000017081320743000522922_);}
	.st64{fill:url(#SVGID_00000113354017005587341350000008111914253037245085_);}
	.st65{fill:url(#SVGID_00000109719436989569241940000005670897533150804363_);}
	.st66{fill:url(#SVGID_00000115507008762181513690000011863195579658452627_);}
	.st67{fill:url(#SVGID_00000008111606012533536740000001462290383937925027_);}
	.st68{fill:url(#SVGID_00000072998449688684971730000012664950541408767879_);}
	.st69{fill:url(#SVGID_00000180364270219288065310000002291287793722054536_);}
	.st70{fill:url(#SVGID_00000080891725875910930770000006421873847097433256_);}
	.st71{fill:url(#SVGID_00000129908409207854831350000008674104725159687603_);}
</style>
<g>
	<linearGradient id="SVGID_1_" gradientUnits="userSpaceOnUse" x1="355.4424" y1="176.2293" x2="1316.6063" y2="857.9851">
		<stop  offset="0" style="stop-color:#2B6CF5"/>
		<stop  offset="1" style="stop-color:#A355F6"/>
	</linearGradient>
	<path class="st0" d="M1205.85,823.35c-2.82-11.7-1.23-24.34-11.01-33.77c-9.55-9.2-21.87-7.89-33.46-10.35
		c2.67-0.38,5.34-0.78,8.02-1.12c2.91-0.36,5.83-0.6,8.73-1c14.02-1.93,23.49-11.72,25.1-25.8c0.61-5.3,1.33-10.58,2.56-15.86
		c0.76,6.17,1.31,12.37,2.33,18.49c2.03,12.2,11.7,21.41,23.94,23.05c5.94,0.8,11.91,1.44,17.9,2.64
		c-5.99,0.75-11.99,1.47-17.98,2.26c-12.21,1.63-21.88,10.86-23.89,23.09C1207.11,811.07,1206.59,817.23,1205.85,823.35z"/>
	
		<linearGradient id="SVGID_00000174568297385343814090000000688024859696097158_" gradientUnits="userSpaceOnUse" x1="105.9222" y1="528.0118" x2="1067.0861" y2="1209.7677">
		<stop  offset="0" style="stop-color:#2B6CF5"/>
		<stop  offset="1" style="stop-color:#A355F6"/>
	</linearGradient>
	<path style="fill:url(#SVGID_00000174568297385343814090000000688024859696097158_);" d="M460.38,823.35
		c-2.82-11.7-1.23-24.34-11.01-33.77c-9.55-9.2-21.87-7.89-33.46-10.35c2.67-0.38,5.34-0.78,8.02-1.12c2.91-0.36,5.83-0.6,8.73-1
		c14.02-1.93,23.49-11.72,25.1-25.8c0.61-5.3,1.33-10.58,2.56-15.86c0.76,6.17,1.31,12.37,2.33,18.49
		c2.03,12.2,11.7,21.41,23.94,23.05c5.94,0.8,11.91,1.44,17.9,2.64c-5.99,0.75-11.99,1.47-17.98,2.26
		c-12.21,1.63-21.88,10.86-23.89,23.09C461.63,811.07,461.11,817.23,460.38,823.35z"/>
	<g>
		
			<linearGradient id="SVGID_00000036969860572041936090000008800482292746083472_" gradientUnits="userSpaceOnUse" x1="408.3097" y1="101.6949" x2="1369.4736" y2="783.4507">
			<stop  offset="0" style="stop-color:#2B6CF5"/>
			<stop  offset="1" style="stop-color:#A355F6"/>
		</linearGradient>
		<polygon style="fill:url(#SVGID_00000036969860572041936090000008800482292746083472_);" points="757.72,450.26 1010.09,286.47 
			1010.09,445.26 875.85,514.78 997.73,601.06 883.42,659.23 757.72,591.6 		"/>
		
			<linearGradient id="SVGID_00000026866546367885517710000001553906190969452446_" gradientUnits="userSpaceOnUse" x1="472.6133" y1="11.0374" x2="1433.7773" y2="692.7932">
			<stop  offset="0" style="stop-color:#2B6CF5"/>
			<stop  offset="1" style="stop-color:#A355F6"/>
		</linearGradient>
		<polygon style="fill:url(#SVGID_00000026866546367885517710000001553906190969452446_);" points="749.46,247.76 869.1,195.02 
			869.1,373.43 749.46,304.65 		"/>
		
			<linearGradient id="SVGID_00000073704618006230445270000004598714493478405012_" gradientUnits="userSpaceOnUse" x1="362.5916" y1="166.15" x2="1323.7556" y2="847.9058">
			<stop  offset="0" style="stop-color:#2B6CF5"/>
			<stop  offset="1" style="stop-color:#A355F6"/>
		</linearGradient>
		<polygon style="fill:url(#SVGID_00000073704618006230445270000004598714493478405012_);" points="657.3,309.78 768.41,378.81 
			657.3,450.38 		"/>
	</g>
	<g>
		
			<linearGradient id="SVGID_00000116193248399196573520000000362068161110659482_" gradientUnits="userSpaceOnUse" x1="144.5798" y1="473.511" x2="1105.7437" y2="1155.2668">
			<stop  offset="0" style="stop-color:#2B6CF5"/>
			<stop  offset="1" style="stop-color:#A355F6"/>
		</linearGradient>
		<path style="fill:url(#SVGID_00000116193248399196573520000000362068161110659482_);" d="M496.94,764.3v-39.95h-25.95v-11.99
			h67.91v11.99h-25.99v39.95H496.94z"/>
		
			<linearGradient id="SVGID_00000174588459918308130680000016373656543480773002_" gradientUnits="userSpaceOnUse" x1="164.4457" y1="445.5032" x2="1125.6097" y2="1127.259">
			<stop  offset="0" style="stop-color:#2B6CF5"/>
			<stop  offset="1" style="stop-color:#A355F6"/>
		</linearGradient>
		<path style="fill:url(#SVGID_00000174588459918308130680000016373656543480773002_);" d="M558.86,764.3
			c-4.43,0-8.2-1.56-11.29-4.68c-3.12-3.12-4.68-6.89-4.68-11.29v-20c0-4.4,1.56-8.17,4.68-11.29c3.12-3.12,6.89-4.68,11.29-4.68
			h41.97v11.99h-37.99c-1.09,0-2.03,0.39-2.81,1.17s-1.17,1.72-1.17,2.81v4.03h40.98v11.99h-40.98v3.98c0,1.09,0.39,2.04,1.17,2.86
			c0.78,0.75,1.72,1.12,2.81,1.12h38.97v11.99H558.86z"/>
		
			<linearGradient id="SVGID_00000178169014329875315570000000887057390115152052_" gradientUnits="userSpaceOnUse" x1="186.8692" y1="413.8898" x2="1148.0331" y2="1095.6456">
			<stop  offset="0" style="stop-color:#2B6CF5"/>
			<stop  offset="1" style="stop-color:#A355F6"/>
		</linearGradient>
		<path style="fill:url(#SVGID_00000178169014329875315570000000887057390115152052_);" d="M665.74,765.28
			c-4.4,0-8.17-1.54-11.29-4.64c-0.12-0.09-0.23-0.2-0.33-0.33h-0.05l-0.56-0.7c-0.12-0.12-0.23-0.25-0.33-0.37l-19.11-22.9
			l-7.21-8.67c-0.09-0.06-0.2-0.12-0.33-0.19c-0.25-0.09-0.5-0.14-0.75-0.14c-0.56,0-1.05,0.2-1.45,0.61
			c-0.37,0.37-0.56,0.84-0.56,1.41v34.94h-15.97v-38.97c0-3.84,1.36-7.14,4.07-9.88c2.75-2.72,6.04-4.08,9.88-4.08h1.03
			c4.4,0,8.17,1.56,11.29,4.68c0.09,0.09,0.19,0.19,0.28,0.28h0.05l0.61,0.7c0.09,0.13,0.19,0.25,0.28,0.37l26.32,31.57
			c0.09,0.09,0.2,0.16,0.33,0.19c0.25,0.09,0.52,0.14,0.8,0.14c0.53,0,1-0.19,1.4-0.56c0.41-0.41,0.61-0.87,0.61-1.41v-34.99h15.97
			v38.97c0,3.87-1.37,7.17-4.12,9.88c-2.72,2.72-6.01,4.07-9.88,4.07H665.74z"/>
		
			<linearGradient id="SVGID_00000146469226113853405830000018437972659033649293_" gradientUnits="userSpaceOnUse" x1="213.9591" y1="375.6975" x2="1175.123" y2="1057.4534">
			<stop  offset="0" style="stop-color:#2B6CF5"/>
			<stop  offset="1" style="stop-color:#A355F6"/>
		</linearGradient>
		<path style="fill:url(#SVGID_00000146469226113853405830000018437972659033649293_);" d="M746.68,765.28
			c-4.4,0-8.17-1.54-11.29-4.64c-0.12-0.09-0.23-0.2-0.33-0.33h-0.05l-0.56-0.7c-0.12-0.12-0.23-0.25-0.33-0.37l-19.11-22.9
			l-7.21-8.67c-0.09-0.06-0.2-0.12-0.33-0.19c-0.25-0.09-0.5-0.14-0.75-0.14c-0.56,0-1.05,0.2-1.45,0.61
			c-0.37,0.37-0.56,0.84-0.56,1.41v34.94h-15.97v-38.97c0-3.84,1.36-7.14,4.07-9.88c2.75-2.72,6.04-4.08,9.88-4.08h1.03
			c4.4,0,8.17,1.56,11.29,4.68c0.09,0.09,0.19,0.19,0.28,0.28h0.05l0.61,0.7c0.09,0.13,0.19,0.25,0.28,0.37l26.32,31.57
			c0.09,0.09,0.2,0.16,0.33,0.19c0.25,0.09,0.52,0.14,0.8,0.14c0.53,0,1-0.19,1.4-0.56c0.41-0.41,0.61-0.87,0.61-1.41v-34.99h15.97
			v38.97c0,3.87-1.37,7.17-4.12,9.88c-2.72,2.72-6.01,4.07-9.88,4.07H746.68z"/>
		
			<linearGradient id="SVGID_00000133509226369137986690000000044156999443478197_" gradientUnits="userSpaceOnUse" x1="231.517" y1="350.9437" x2="1192.681" y2="1032.6995">
			<stop  offset="0" style="stop-color:#2B6CF5"/>
			<stop  offset="1" style="stop-color:#A355F6"/>
		</linearGradient>
		<path style="fill:url(#SVGID_00000133509226369137986690000000044156999443478197_);" d="M769.68,764.3v-51.94h15.97v51.94H769.68
			z"/>
		
			<linearGradient id="SVGID_00000160190162410602254750000000494668683031956648_" gradientUnits="userSpaceOnUse" x1="246.9044" y1="329.25" x2="1208.0684" y2="1011.0058">
			<stop  offset="0" style="stop-color:#2B6CF5"/>
			<stop  offset="1" style="stop-color:#A355F6"/>
		</linearGradient>
		<path style="fill:url(#SVGID_00000160190162410602254750000000494668683031956648_);" d="M791.69,764.3v-11.99h46.93
			c1.09,0,2.03-0.37,2.81-1.12c0.78-0.81,1.17-1.76,1.17-2.86s-0.39-2.03-1.17-2.81s-1.72-1.17-2.81-1.17h-37
			c-2.19,0-4.08-0.78-5.67-2.34c-1.53-1.56-2.29-3.45-2.29-5.67v-15.97c0-2.19,0.77-4.07,2.29-5.67c1.59-1.56,3.48-2.34,5.67-2.34
			h53.96v11.99h-41.97c-1.09,0-2.03,0.39-2.81,1.17s-1.17,1.72-1.17,2.81c0,1.12,0.39,2.08,1.17,2.86c0.78,0.78,1.72,1.17,2.81,1.17
			h37c2.19,0,4.06,0.78,5.62,2.34s2.34,3.44,2.34,5.62v16.02c0,2.19-0.78,4.08-2.34,5.67c-1.56,1.53-3.44,2.29-5.62,2.29H791.69z"/>
		
			<linearGradient id="SVGID_00000158735704129150546890000003775086211188571010_" gradientUnits="userSpaceOnUse" x1="270.9844" y1="295.3012" x2="1232.1483" y2="977.057">
			<stop  offset="0" style="stop-color:#2B6CF5"/>
			<stop  offset="1" style="stop-color:#A355F6"/>
		</linearGradient>
		<path style="fill:url(#SVGID_00000158735704129150546890000003775086211188571010_);" d="M863.63,764.3v-11.99h46.93
			c1.09,0,2.03-0.37,2.81-1.12c0.78-0.81,1.17-1.76,1.17-2.86s-0.39-2.03-1.17-2.81c-0.78-0.78-1.72-1.17-2.81-1.17h-37
			c-2.19,0-4.08-0.78-5.67-2.34c-1.53-1.56-2.29-3.45-2.29-5.67v-15.97c0-2.19,0.77-4.07,2.29-5.67c1.59-1.56,3.48-2.34,5.67-2.34
			h53.96v11.99h-41.97c-1.09,0-2.03,0.39-2.81,1.17c-0.78,0.78-1.17,1.72-1.17,2.81c0,1.12,0.39,2.08,1.17,2.86
			c0.78,0.78,1.72,1.17,2.81,1.17h37c2.19,0,4.06,0.78,5.62,2.34c1.56,1.56,2.34,3.44,2.34,5.62v16.02c0,2.19-0.78,4.08-2.34,5.67
			c-1.56,1.53-3.44,2.29-5.62,2.29H863.63z"/>
		
			<linearGradient id="SVGID_00000078748184685981588270000007682643404179792299_" gradientUnits="userSpaceOnUse" x1="287.704" y1="271.7293" x2="1248.8679" y2="953.4851">
			<stop  offset="0" style="stop-color:#2B6CF5"/>
			<stop  offset="1" style="stop-color:#A355F6"/>
		</linearGradient>
		<path style="fill:url(#SVGID_00000078748184685981588270000007682643404179792299_);" d="M937.54,764.3v-51.94h15.97v51.94H937.54
			z"/>
		
			<linearGradient id="SVGID_00000120559834704073431800000010936972852513997712_" gradientUnits="userSpaceOnUse" x1="305.2624" y1="246.9748" x2="1266.4264" y2="928.7307">
			<stop  offset="0" style="stop-color:#2B6CF5"/>
			<stop  offset="1" style="stop-color:#A355F6"/>
		</linearGradient>
		<path style="fill:url(#SVGID_00000120559834704073431800000010936972852513997712_);" d="M1019.46,765.28
			c-4.4,0-8.17-1.54-11.29-4.64c-0.12-0.09-0.23-0.2-0.33-0.33h-0.05l-0.56-0.7c-0.12-0.12-0.23-0.25-0.33-0.37l-19.11-22.9
			l-7.21-8.67c-0.09-0.06-0.2-0.12-0.33-0.19c-0.25-0.09-0.5-0.14-0.75-0.14c-0.56,0-1.05,0.2-1.45,0.61
			c-0.37,0.37-0.56,0.84-0.56,1.41v34.94h-15.97v-38.97c0-3.84,1.36-7.14,4.07-9.88c2.75-2.72,6.04-4.08,9.88-4.08h1.03
			c4.4,0,8.17,1.56,11.29,4.68c0.09,0.09,0.19,0.19,0.28,0.28h0.05l0.61,0.7c0.09,0.13,0.19,0.25,0.28,0.37l26.32,31.57
			c0.09,0.09,0.2,0.16,0.33,0.19c0.25,0.09,0.52,0.14,0.8,0.14c0.53,0,1-0.19,1.4-0.56c0.41-0.41,0.61-0.87,0.61-1.41v-34.99h15.97
			v38.97c0,3.87-1.37,7.17-4.12,9.88c-2.72,2.72-6.01,4.07-9.88,4.07H1019.46z"/>
		
			<linearGradient id="SVGID_00000059994130632584553440000003408602965408045706_" gradientUnits="userSpaceOnUse" x1="331.6579" y1="209.7614" x2="1292.8219" y2="891.5173">
			<stop  offset="0" style="stop-color:#2B6CF5"/>
			<stop  offset="1" style="stop-color:#A355F6"/>
		</linearGradient>
		<path style="fill:url(#SVGID_00000059994130632584553440000003408602965408045706_);" d="M1058.43,764.3
			c-4.43,0-8.2-1.56-11.29-4.68c-3.12-3.12-4.68-6.89-4.68-11.29v-20c0-4.4,1.56-8.17,4.68-11.29c3.12-3.12,6.89-4.68,11.29-4.68
			h41.97v11.99h-37.99c-1.09,0-2.03,0.39-2.81,1.17c-0.78,0.78-1.17,1.72-1.17,2.81v4.03h40.98v11.99h-40.98v3.98
			c0,1.09,0.39,2.04,1.17,2.86c0.78,0.75,1.72,1.12,2.81,1.12h38.97v11.99H1058.43z"/>
		
			<linearGradient id="SVGID_00000040570208707428670580000002602774176352806020_" gradientUnits="userSpaceOnUse" x1="351.5138" y1="181.7679" x2="1312.6777" y2="863.5237">
			<stop  offset="0" style="stop-color:#2B6CF5"/>
			<stop  offset="1" style="stop-color:#A355F6"/>
		</linearGradient>
		<path style="fill:url(#SVGID_00000040570208707428670580000002602774176352806020_);" d="M1107.94,732.35l4.54-8.01h-5.11v-11.99
			h11.99v11.99l-4.59,8.01H1107.94z"/>
		
			<linearGradient id="SVGID_00000103965067661578869710000007101011872035606973_" gradientUnits="userSpaceOnUse" x1="358.5882" y1="171.7941" x2="1319.7522" y2="853.5499">
			<stop  offset="0" style="stop-color:#2B6CF5"/>
			<stop  offset="1" style="stop-color:#A355F6"/>
		</linearGradient>
		<path style="fill:url(#SVGID_00000103965067661578869710000007101011872035606973_);" d="M1125.36,764.3v-11.99h46.93
			c1.09,0,2.03-0.37,2.81-1.12c0.78-0.81,1.17-1.76,1.17-2.86s-0.39-2.03-1.17-2.81c-0.78-0.78-1.72-1.17-2.81-1.17h-37
			c-2.19,0-4.08-0.78-5.67-2.34c-1.53-1.56-2.29-3.45-2.29-5.67v-15.97c0-2.19,0.77-4.07,2.29-5.67c1.59-1.56,3.48-2.34,5.67-2.34
			h53.96v11.99h-41.97c-1.09,0-2.03,0.39-2.81,1.17c-0.78,0.78-1.17,1.72-1.17,2.81c0,1.12,0.39,2.08,1.17,2.86
			c0.78,0.78,1.72,1.17,2.81,1.17h37c2.19,0,4.06,0.78,5.62,2.34c1.56,1.56,2.34,3.44,2.34,5.62v16.02c0,2.19-0.78,4.08-2.34,5.67
			c-1.56,1.53-3.44,2.29-5.62,2.29H1125.36z"/>
	</g>
	<g>
		
			<linearGradient id="SVGID_00000157298683652416354660000010710045911939713982_" gradientUnits="userSpaceOnUse" x1="96.6377" y1="541.1015" x2="1057.8016" y2="1222.8573">
			<stop  offset="0" style="stop-color:#2B6CF5"/>
			<stop  offset="1" style="stop-color:#A355F6"/>
		</linearGradient>
		<path style="fill:url(#SVGID_00000157298683652416354660000010710045911939713982_);" d="M467.65,908.86v-25.79H568.6
			c2.35,0,4.37-0.81,6.04-2.42c1.68-1.75,2.52-3.79,2.52-6.14c0-2.35-0.84-4.37-2.52-6.05c-1.68-1.68-3.69-2.52-6.04-2.52h-79.59
			c-4.7,0-8.76-1.68-12.19-5.04c-3.29-3.36-4.94-7.42-4.94-12.19v-34.36c0-4.7,1.64-8.76,4.94-12.19c3.43-3.36,7.49-5.04,12.19-5.04
			h116.06v25.79H514.8c-2.35,0-4.37,0.84-6.04,2.52c-1.68,1.68-2.52,3.7-2.52,6.05c0,2.42,0.84,4.47,2.52,6.15
			c1.68,1.68,3.69,2.52,6.04,2.52h79.59c4.7,0,8.73,1.68,12.09,5.04c3.36,3.36,5.04,7.39,5.04,12.09v34.46
			c0,4.7-1.68,8.77-5.04,12.19c-3.36,3.29-7.39,4.94-12.09,4.94H467.65z"/>
		
			<linearGradient id="SVGID_00000080918453112304550960000000259109940237867400_" gradientUnits="userSpaceOnUse" x1="148.6333" y1="467.7962" x2="1109.7972" y2="1149.552">
			<stop  offset="0" style="stop-color:#2B6CF5"/>
			<stop  offset="1" style="stop-color:#A355F6"/>
		</linearGradient>
		<path style="fill:url(#SVGID_00000080918453112304550960000000259109940237867400_);" d="M626.63,908.86V797.13h124.63
			c4.7,0,8.76,1.68,12.19,5.04c3.36,3.36,5.04,7.42,5.04,12.19v34.36c0,4.77-1.68,8.83-5.04,12.19c-3.43,3.36-7.49,5.04-12.19,5.04
			h-90.27v42.92H626.63z M725.47,840.15c2.35,0,4.37-0.84,6.04-2.52c1.68-1.68,2.52-3.73,2.52-6.15c0-2.35-0.84-4.37-2.52-6.05
			c-1.68-1.68-3.69-2.52-6.04-2.52h-64.48v17.23H725.47z"/>
		
			<linearGradient id="SVGID_00000052075422283877158990000014132623054104740280_" gradientUnits="userSpaceOnUse" x1="187.6347" y1="412.8106" x2="1148.7986" y2="1094.5664">
			<stop  offset="0" style="stop-color:#2B6CF5"/>
			<stop  offset="1" style="stop-color:#A355F6"/>
		</linearGradient>
		<path style="fill:url(#SVGID_00000052075422283877158990000014132623054104740280_);" d="M758.72,908.86l53.8-94.3
			c1.68-3.43,3.96-6.58,6.85-9.47c6.72-6.72,14.84-10.07,24.38-10.07c9.47,0,17.56,3.36,24.28,10.07c2.89,2.89,5.17,6.04,6.85,9.47
			l53.9,94.3H891l-13.5-23.58h-67.6l-13.5,23.58H758.72z M866.42,865.94l-20.55-35.97c-0.6-0.4-1.31-0.6-2.12-0.6
			c-0.87,0-1.61,0.2-2.22,0.6l-20.55,35.97H866.42z"/>
		
			<linearGradient id="SVGID_00000115481122288703521060000003703828521619573403_" gradientUnits="userSpaceOnUse" x1="253.0484" y1="320.588" x2="1214.2123" y2="1002.3439">
			<stop  offset="0" style="stop-color:#2B6CF5"/>
			<stop  offset="1" style="stop-color:#A355F6"/>
		</linearGradient>
		<path style="fill:url(#SVGID_00000115481122288703521060000003703828521619573403_);" d="M964.05,908.86
			c-9.54,0-17.63-3.36-24.28-10.07c-6.72-6.72-10.07-14.81-10.07-24.28v-43.02c0-9.47,3.36-17.56,10.07-24.28
			c6.72-6.72,14.81-10.07,24.28-10.07h90.27v25.79h-73.04c-4.77,0-8.83,1.68-12.19,5.04c-3.36,3.36-5.04,7.42-5.04,12.19v25.79
			c0,4.7,1.68,8.77,5.04,12.19c3.36,3.29,7.42,4.94,12.19,4.94h73.04v25.79H964.05z"/>
		
			<linearGradient id="SVGID_00000181066312664452040220000007273954779237375166_" gradientUnits="userSpaceOnUse" x1="299.0791" y1="255.6922" x2="1260.243" y2="937.448">
			<stop  offset="0" style="stop-color:#2B6CF5"/>
			<stop  offset="1" style="stop-color:#A355F6"/>
		</linearGradient>
		<path style="fill:url(#SVGID_00000181066312664452040220000007273954779237375166_);" d="M1101.57,908.86
			c-9.54,0-17.63-3.36-24.28-10.07c-6.72-6.72-10.07-14.81-10.07-24.28v-43.02c0-9.47,3.36-17.56,10.07-24.28
			c6.72-6.72,14.81-10.07,24.28-10.07h90.27v25.79h-81.71c-2.35,0-4.37,0.84-6.05,2.52c-1.68,1.68-2.52,3.7-2.52,6.05v8.66h88.16
			v25.79h-88.16v8.56c0,2.35,0.84,4.4,2.52,6.14c1.68,1.61,3.69,2.42,6.05,2.42h83.82v25.79H1101.57z"/>
	</g>
</g>
</svg>
