<?xml version="1.0" encoding="utf-8"?>
<!-- Generator: Adobe Illustrator 28.2.0, SVG Export Plug-In . SVG Version: 6.00 Build 0)  -->
<svg version="1.1" id="Layer_1" xmlns="http://www.w3.org/2000/svg" xmlns:xlink="http://www.w3.org/1999/xlink" x="0px" y="0px"
	 viewBox="0 0 1671.53 540.18" style="enable-background:new 0 0 1671.53 540.18;" xml:space="preserve">
<style type="text/css">
	.st0{fill:url(#SVGID_1_);}
	.st1{fill:url(#SVGID_00000139277118913076931460000011038792808428458120_);}
	.st2{fill:#000835;}
	.st3{fill:url(#SVGID_00000179633065924615351690000012434992672383260813_);}
	.st4{fill:url(#SVGID_00000112603856160245714270000000786205403508804790_);}
	.st5{fill:url(#SVGID_00000048495917271065380430000005801683506164544191_);}
	.st6{fill:url(#SVGID_00000006676478469118549470000012801743810997936060_);}
	.st7{fill:url(#SVGID_00000001639638295564478970000000349668441759160496_);}
	.st8{fill:url(#SVGID_00000167395970615819378940000006811139561341054886_);}
	.st9{fill:url(#SVGID_00000029732812806525124000000006435606734140624791_);}
	.st10{fill:url(#SVGID_00000035513240550243350540000001116365237032641693_);}
	.st11{fill:url(#SVGID_00000062884549936319972870000011710794555378329272_);}
	.st12{fill:url(#SVGID_00000073714769405355557880000002579088268794531719_);}
	.st13{fill:url(#SVGID_00000069399048740647108910000003836901812257533338_);}
	.st14{fill:url(#SVGID_00000074428704569425502120000007552774880364478873_);}
	.st15{fill:url(#SVGID_00000182488083697642988860000015303277784447680389_);}
	.st16{fill:url(#SVGID_00000156554855581570385930000015333577316595380115_);}
	.st17{fill:url(#SVGID_00000018214288975581672640000014593877085628422334_);}
	.st18{fill:url(#SVGID_00000137091853453827782080000001448647939742928544_);}
	.st19{fill:url(#SVGID_00000034064255853620448280000002873237970762165131_);}
	.st20{fill:url(#SVGID_00000046334897907217476440000001344913642258676121_);}
	.st21{fill:url(#SVGID_00000051368262427468838540000007579093123275644804_);}
	.st22{fill:url(#SVGID_00000119099832640305230710000006832606180819835823_);}
	.st23{fill:url(#SVGID_00000000936422086930253240000001892893033592774058_);}
	.st24{fill:url(#SVGID_00000005268365830053717000000005434080502163456402_);}
	.st25{fill:url(#SVGID_00000043416781767554100780000007321186584904543910_);}
	.st26{fill:url(#SVGID_00000183248317628008805460000009218673935054273942_);}
	.st27{fill:url(#SVGID_00000060739810446312986630000015491897633482809248_);}
	.st28{fill:url(#SVGID_00000054242817973321119420000000622257518844586119_);}
	.st29{fill:url(#SVGID_00000016057893815365313250000000477450683120322180_);}
	.st30{fill:url(#SVGID_00000013894861695414960560000018133903188394283941_);}
	.st31{fill:url(#SVGID_00000019637178208857426900000001432954637767242401_);}
	.st32{fill:url(#SVGID_00000080189263005206360160000000047234377408694455_);}
	.st33{fill:url(#SVGID_00000150795983986233835220000009373363027921281974_);}
	.st34{fill:url(#SVGID_00000103237164747734561290000009703231058039869828_);}
	.st35{fill:url(#SVGID_00000033347356414766195740000008491518416590929594_);}
	.st36{fill:url(#SVGID_00000028298180965014593360000014315100644147977632_);}
	.st37{fill:url(#SVGID_00000075143245171229942600000008798172200012988587_);}
	.st38{fill:url(#SVGID_00000061465835034380380250000018111345415039281561_);}
	.st39{fill:url(#SVGID_00000164511369532169965860000016971135832344719535_);}
	.st40{fill:url(#SVGID_00000112591140864187530610000012537068338854696064_);}
	.st41{fill:url(#SVGID_00000097465211674157082810000005895052487770510752_);}
	.st42{fill:url(#SVGID_00000013885324686996128980000002228476833459461564_);}
	.st43{fill:url(#SVGID_00000050622694487620221740000017678249008155329952_);}
	.st44{fill:url(#SVGID_00000074415136611317597690000003845578918594882465_);}
	.st45{fill:url(#SVGID_00000150093770388151894120000010067861502994053519_);}
	.st46{fill:url(#SVGID_00000098179854268987736570000006997685000067630747_);}
	.st47{fill:url(#SVGID_00000127735447764902135100000002494134049603369406_);}
	.st48{fill:url(#SVGID_00000013192673895127725600000002620946463445081754_);}
	.st49{fill:url(#SVGID_00000029768382833892706820000018172069614609031565_);}
	.st50{fill:url(#SVGID_00000178921254441322410820000017671616290069601932_);}
	.st51{fill:url(#SVGID_00000137111201499089856170000013871654032861184936_);}
	.st52{fill:url(#SVGID_00000005948212297648696310000003737441015919755448_);}
	.st53{fill:url(#SVGID_00000030470203760188369770000015647783626950484866_);}
	.st54{fill:url(#SVGID_00000031189340818493928970000014637801674569043357_);}
	.st55{fill:url(#SVGID_00000146480056030625407640000013752865683754481323_);}
	.st56{fill:url(#SVGID_00000080914304481582745250000010674764565455009971_);}
	.st57{fill:url(#SVGID_00000029747322118586176420000013738488361530529718_);}
	.st58{fill:url(#SVGID_00000130635228119533901670000013830082833238310793_);}
	.st59{fill:url(#SVGID_00000179645232981114603180000015204338183105510535_);}
	.st60{fill:url(#SVGID_00000123439574048780356970000012654717734823844254_);}
	.st61{fill:url(#SVGID_00000053507818553779864980000013940313413222035900_);}
	.st62{fill:url(#SVGID_00000085937365817430210340000008364183507689511816_);}
	.st63{fill:url(#SVGID_00000086651274688765030540000010836708659575861420_);}
	.st64{fill:url(#SVGID_00000084496679752782325260000007212272864097083557_);}
	.st65{fill:url(#SVGID_00000029736101852102320950000003916315979147031719_);}
	.st66{fill:url(#SVGID_00000183240116000179056630000005443952170427051940_);}
	.st67{fill:url(#SVGID_00000049183377071108676700000013829047789290342539_);}
	.st68{fill:url(#SVGID_00000121269005246946372210000012069659357290853018_);}
	.st69{fill:url(#SVGID_00000132807579951610215830000000494094098540168109_);}
	.st70{fill:url(#SVGID_00000077313340463338133840000013950810898543310507_);}
	.st71{fill:url(#SVGID_00000036929552898052642110000011991727384032742287_);}
</style>
<linearGradient id="SVGID_1_" gradientUnits="userSpaceOnUse" x1="251.7448" y1="23.2675" x2="1155.2742" y2="350.7969">
	<stop  offset="0" style="stop-color:#2B6CF5"/>
	<stop  offset="1" style="stop-color:#A355F6"/>
</linearGradient>
<path class="st0" d="M1078.21,356.16c-2.14-8.87-0.93-18.45-8.34-25.59c-7.24-6.98-16.58-5.98-25.36-7.84
	c2.03-0.29,4.05-0.59,6.08-0.85c2.2-0.28,4.42-0.45,6.61-0.76c10.63-1.47,17.8-8.88,19.02-19.55c0.46-4.02,1.01-8.02,1.94-12.02
	c0.58,4.67,0.99,9.37,1.77,14.01c1.54,9.25,8.87,16.23,18.15,17.47c4.51,0.6,9.03,1.09,13.57,2c-4.54,0.57-9.09,1.11-13.63,1.72
	c-9.25,1.23-16.58,8.23-18.1,17.5C1079.16,346.85,1078.77,351.52,1078.21,356.16z"/>
<g>
	
		<linearGradient id="SVGID_00000144312547238416650570000005963734073380625081_" gradientUnits="userSpaceOnUse" x1="214.8283" y1="145.6744" x2="1118.3577" y2="473.2038">
		<stop  offset="0" style="stop-color:#2B6CF5"/>
		<stop  offset="1" style="stop-color:#A355F6"/>
	</linearGradient>
	<polygon style="fill:url(#SVGID_00000144312547238416650570000005963734073380625081_);" points="390.54,244.19 581.82,120.05 
		581.82,240.4 480.08,293.09 572.45,358.48 485.82,402.57 390.54,351.31 	"/>
	
		<linearGradient id="SVGID_00000155124293232870455990000017790862096280636092_" gradientUnits="userSpaceOnUse" x1="253.7963" y1="38.1766" x2="1157.3257" y2="365.706">
		<stop  offset="0" style="stop-color:#2B6CF5"/>
		<stop  offset="1" style="stop-color:#A355F6"/>
	</linearGradient>
	<polygon style="fill:url(#SVGID_00000155124293232870455990000017790862096280636092_);" points="384.28,90.71 474.96,50.74 
		474.96,185.96 384.28,133.83 	"/>
	
		<linearGradient id="SVGID_00000102502795230584445350000002288913064625952683_" gradientUnits="userSpaceOnUse" x1="211.8753" y1="153.8207" x2="1115.4047" y2="481.3502">
		<stop  offset="0" style="stop-color:#2B6CF5"/>
		<stop  offset="1" style="stop-color:#A355F6"/>
	</linearGradient>
	<polygon style="fill:url(#SVGID_00000102502795230584445350000002288913064625952683_);" points="314.43,137.72 398.65,190.03 
		314.43,244.28 	"/>
</g>
<g>
	
		<linearGradient id="SVGID_00000059992828465252767380000011148929106947881654_" gradientUnits="userSpaceOnUse" x1="205.468" y1="150.9278" x2="1108.9973" y2="478.4572">
		<stop  offset="0" style="stop-color:#2B6CF5"/>
		<stop  offset="1" style="stop-color:#A355F6"/>
	</linearGradient>
	<path style="fill:url(#SVGID_00000059992828465252767380000011148929106947881654_);" d="M568.16,307.3
		c-3.36,0-6.21-1.18-8.55-3.55c-2.37-2.37-3.55-5.22-3.55-8.55v-15.16c0-3.34,1.18-6.19,3.55-8.56c2.37-2.37,5.22-3.55,8.55-3.55
		h28.79c3.34,0,6.19,1.18,8.55,3.55c2.37,2.37,3.55,5.22,3.55,8.56v6.07c0,1.68-0.59,3.11-1.77,4.29c-1.18,1.18-2.62,1.78-4.3,1.78
		h-34.82v3.02c0,0.83,0.3,1.55,0.89,2.17c0.59,0.57,1.3,0.85,2.13,0.85h37.13v9.09H568.16z M596.95,283.09v-3.05
		c0-0.83-0.3-1.54-0.89-2.13c-0.62-0.59-1.34-0.89-2.17-0.89h-22.72c-0.83,0-1.54,0.3-2.13,0.89s-0.89,1.3-0.89,2.13v3.05H596.95z"
		/>
	
		<linearGradient id="SVGID_00000059995932500160907610000011909744778562854036_" gradientUnits="userSpaceOnUse" x1="212.3709" y1="131.8852" x2="1115.9003" y2="459.4146">
		<stop  offset="0" style="stop-color:#2B6CF5"/>
		<stop  offset="1" style="stop-color:#A355F6"/>
	</linearGradient>
	<path style="fill:url(#SVGID_00000059995932500160907610000011909744778562854036_);" d="M658.25,308.05
		c-3.34,0-6.19-1.17-8.55-3.51c-0.09-0.07-0.18-0.15-0.25-0.25h-0.04l-0.43-0.53c-0.09-0.09-0.18-0.19-0.25-0.28l-14.48-17.36
		l-5.47-6.57c-0.07-0.05-0.15-0.09-0.25-0.14c-0.19-0.07-0.38-0.11-0.57-0.11c-0.43,0-0.79,0.15-1.1,0.46
		c-0.28,0.28-0.43,0.64-0.43,1.07v26.48h-12.1v-29.53c0-2.91,1.03-5.41,3.09-7.49c2.08-2.06,4.58-3.09,7.49-3.09h0.78
		c3.34,0,6.19,1.18,8.56,3.55c0.07,0.07,0.14,0.14,0.21,0.21h0.04l0.46,0.53c0.07,0.1,0.14,0.19,0.21,0.28l19.95,23.93
		c0.07,0.07,0.15,0.12,0.25,0.14c0.19,0.07,0.39,0.11,0.6,0.11c0.4,0,0.76-0.14,1.06-0.43c0.31-0.31,0.46-0.66,0.46-1.07v-26.52
		h12.11v29.54c0,2.93-1.04,5.43-3.12,7.49c-2.06,2.06-4.56,3.09-7.49,3.09H658.25z"/>
	
		<linearGradient id="SVGID_00000023987262877988483810000016457292047424436396_" gradientUnits="userSpaceOnUse" x1="219.4954" y1="112.2315" x2="1123.0248" y2="439.7609">
		<stop  offset="0" style="stop-color:#2B6CF5"/>
		<stop  offset="1" style="stop-color:#A355F6"/>
	</linearGradient>
	<path style="fill:url(#SVGID_00000023987262877988483810000016457292047424436396_);" d="M719.59,308.05
		c-3.34,0-6.19-1.17-8.55-3.51c-0.09-0.07-0.18-0.15-0.25-0.25h-0.04l-0.43-0.53c-0.09-0.09-0.18-0.19-0.25-0.28l-14.48-17.36
		l-5.47-6.57c-0.07-0.05-0.15-0.09-0.25-0.14c-0.19-0.07-0.38-0.11-0.57-0.11c-0.43,0-0.79,0.15-1.1,0.46
		c-0.28,0.28-0.43,0.64-0.43,1.07v26.48h-12.1v-29.53c0-2.91,1.03-5.41,3.09-7.49c2.08-2.06,4.58-3.09,7.49-3.09h0.78
		c3.34,0,6.19,1.18,8.56,3.55c0.07,0.07,0.14,0.14,0.21,0.21h0.04l0.46,0.53c0.07,0.1,0.14,0.19,0.21,0.28l19.95,23.93
		c0.07,0.07,0.15,0.12,0.25,0.14c0.19,0.07,0.39,0.11,0.6,0.11c0.4,0,0.76-0.14,1.06-0.43c0.31-0.31,0.46-0.66,0.46-1.07v-26.52
		h12.11v29.54c0,2.93-1.04,5.43-3.12,7.49c-2.06,2.06-4.56,3.09-7.49,3.09H719.59z"/>
	
		<linearGradient id="SVGID_00000170959700150603321230000013210107056035687052_" gradientUnits="userSpaceOnUse" x1="224.1129" y1="99.4933" x2="1127.6423" y2="427.0227">
		<stop  offset="0" style="stop-color:#2B6CF5"/>
		<stop  offset="1" style="stop-color:#A355F6"/>
	</linearGradient>
	<path style="fill:url(#SVGID_00000170959700150603321230000013210107056035687052_);" d="M737.02,307.3v-39.37h12.1v39.37H737.02z"
		/>
	
		<linearGradient id="SVGID_00000131338616669049024550000016480222958211121549_" gradientUnits="userSpaceOnUse" x1="228.1596" y1="88.3302" x2="1131.689" y2="415.8596">
		<stop  offset="0" style="stop-color:#2B6CF5"/>
		<stop  offset="1" style="stop-color:#A355F6"/>
	</linearGradient>
	<path style="fill:url(#SVGID_00000131338616669049024550000016480222958211121549_);" d="M753.71,307.3v-9.09h35.57
		c0.83,0,1.54-0.28,2.13-0.85c0.59-0.62,0.89-1.34,0.89-2.17s-0.3-1.54-0.89-2.13s-1.3-0.89-2.13-0.89h-28.04
		c-1.66,0-3.09-0.59-4.3-1.78c-1.16-1.18-1.74-2.61-1.74-4.29V274c0-1.66,0.58-3.09,1.74-4.29c1.21-1.18,2.64-1.78,4.3-1.78h40.89
		v9.09h-31.81c-0.83,0-1.54,0.3-2.13,0.89s-0.89,1.3-0.89,2.13c0,0.85,0.3,1.57,0.89,2.17c0.59,0.59,1.3,0.89,2.13,0.89h28.04
		c1.66,0,3.08,0.59,4.26,1.78s1.78,2.6,1.78,4.26v12.14c0,1.66-0.59,3.09-1.78,4.3c-1.18,1.16-2.6,1.74-4.26,1.74H753.71z"/>
	
		<linearGradient id="SVGID_00000011732682996867846770000012515114721350626207_" gradientUnits="userSpaceOnUse" x1="234.4925" y1="70.8601" x2="1138.0219" y2="398.3895">
		<stop  offset="0" style="stop-color:#2B6CF5"/>
		<stop  offset="1" style="stop-color:#A355F6"/>
	</linearGradient>
	<path style="fill:url(#SVGID_00000011732682996867846770000012515114721350626207_);" d="M808.23,307.3v-9.09h35.57
		c0.83,0,1.54-0.28,2.13-0.85c0.59-0.62,0.89-1.34,0.89-2.17s-0.3-1.54-0.89-2.13s-1.3-0.89-2.13-0.89h-28.04
		c-1.66,0-3.09-0.59-4.3-1.78c-1.16-1.18-1.74-2.61-1.74-4.29V274c0-1.66,0.58-3.09,1.74-4.29c1.21-1.18,2.64-1.78,4.3-1.78h40.89
		v9.09h-31.81c-0.83,0-1.54,0.3-2.13,0.89s-0.89,1.3-0.89,2.13c0,0.85,0.3,1.57,0.89,2.17c0.59,0.59,1.3,0.89,2.13,0.89h28.04
		c1.66,0,3.08,0.59,4.26,1.78s1.78,2.6,1.78,4.26v12.14c0,1.66-0.59,3.09-1.78,4.3c-1.18,1.16-2.6,1.74-4.26,1.74H808.23z"/>
	
		<linearGradient id="SVGID_00000159439380007875594280000003227538084249986476_" gradientUnits="userSpaceOnUse" x1="238.8896" y1="58.7302" x2="1142.4189" y2="386.2596">
		<stop  offset="0" style="stop-color:#2B6CF5"/>
		<stop  offset="1" style="stop-color:#A355F6"/>
	</linearGradient>
	<path style="fill:url(#SVGID_00000159439380007875594280000003227538084249986476_);" d="M864.25,307.3v-39.37h12.1v39.37H864.25z"
		/>
	
		<linearGradient id="SVGID_00000163037898316842037970000004269403018107236770_" gradientUnits="userSpaceOnUse" x1="243.5073" y1="45.9917" x2="1147.0366" y2="373.5211">
		<stop  offset="0" style="stop-color:#2B6CF5"/>
		<stop  offset="1" style="stop-color:#A355F6"/>
	</linearGradient>
	<path style="fill:url(#SVGID_00000163037898316842037970000004269403018107236770_);" d="M926.34,308.05
		c-3.34,0-6.19-1.17-8.55-3.51c-0.09-0.07-0.18-0.15-0.25-0.25h-0.04l-0.43-0.53c-0.09-0.09-0.18-0.19-0.25-0.28l-14.48-17.36
		l-5.47-6.57c-0.07-0.05-0.15-0.09-0.25-0.14c-0.19-0.07-0.38-0.11-0.57-0.11c-0.43,0-0.79,0.15-1.1,0.46
		c-0.28,0.28-0.43,0.64-0.43,1.07v26.48h-12.1v-29.53c0-2.91,1.03-5.41,3.09-7.49c2.08-2.06,4.58-3.09,7.49-3.09h0.78
		c3.34,0,6.19,1.18,8.56,3.55c0.07,0.07,0.14,0.14,0.21,0.21h0.04l0.46,0.53c0.07,0.1,0.14,0.19,0.21,0.28l19.95,23.93
		c0.07,0.07,0.15,0.12,0.25,0.14c0.19,0.07,0.39,0.11,0.6,0.11c0.4,0,0.76-0.14,1.06-0.43c0.31-0.31,0.46-0.66,0.46-1.07v-26.52
		h12.11v29.54c0,2.93-1.04,5.43-3.12,7.49c-2.06,2.06-4.56,3.09-7.49,3.09H926.34z"/>
	
		<linearGradient id="SVGID_00000155863548720522408330000010720467797852481417_" gradientUnits="userSpaceOnUse" x1="250.4987" y1="26.7051" x2="1154.0281" y2="354.2345">
		<stop  offset="0" style="stop-color:#2B6CF5"/>
		<stop  offset="1" style="stop-color:#A355F6"/>
	</linearGradient>
	<path style="fill:url(#SVGID_00000155863548720522408330000010720467797852481417_);" d="M955.87,307.3
		c-3.36,0-6.21-1.18-8.55-3.55c-2.37-2.37-3.55-5.22-3.55-8.55v-15.16c0-3.34,1.18-6.19,3.55-8.56c2.37-2.37,5.22-3.55,8.55-3.55
		h28.79c3.34,0,6.19,1.18,8.55,3.55c2.37,2.37,3.55,5.22,3.55,8.56v6.07c0,1.68-0.59,3.11-1.77,4.29c-1.18,1.18-2.62,1.78-4.3,1.78
		h-34.82v3.02c0,0.83,0.3,1.55,0.89,2.17c0.59,0.57,1.3,0.85,2.13,0.85h37.13v9.09H955.87z M984.66,283.09v-3.05
		c0-0.83-0.3-1.54-0.89-2.13c-0.62-0.59-1.34-0.89-2.17-0.89h-22.72c-0.83,0-1.54,0.3-2.13,0.89s-0.89,1.3-0.89,2.13v3.05H984.66z"
		/>
	
		<linearGradient id="SVGID_00000054961639940851092380000002364200749570555284_" gradientUnits="userSpaceOnUse" x1="258.6227" y1="4.2939" x2="1162.1521" y2="331.8233">
		<stop  offset="0" style="stop-color:#2B6CF5"/>
		<stop  offset="1" style="stop-color:#A355F6"/>
	</linearGradient>
	<path style="fill:url(#SVGID_00000054961639940851092380000002364200749570555284_);" d="M1002.48,283.09l3.44-6.07h-3.87v-9.09
		h9.09v9.09l-3.48,6.07H1002.48z"/>
	
		<linearGradient id="SVGID_00000094603640324815540450000014332189913099049110_" gradientUnits="userSpaceOnUse" x1="258.5868" y1="4.3929" x2="1162.1162" y2="331.9223">
		<stop  offset="0" style="stop-color:#2B6CF5"/>
		<stop  offset="1" style="stop-color:#A355F6"/>
	</linearGradient>
	<path style="fill:url(#SVGID_00000094603640324815540450000014332189913099049110_);" d="M1015.69,307.3v-9.09h35.57
		c0.83,0,1.54-0.28,2.13-0.85c0.59-0.62,0.89-1.34,0.89-2.17s-0.3-1.54-0.89-2.13s-1.3-0.89-2.13-0.89h-28.04
		c-1.66,0-3.09-0.59-4.3-1.78c-1.16-1.18-1.74-2.61-1.74-4.29V274c0-1.66,0.58-3.09,1.74-4.29c1.21-1.18,2.64-1.78,4.3-1.78h40.89
		v9.09h-31.81c-0.83,0-1.54,0.3-2.13,0.89s-0.89,1.3-0.89,2.13c0,0.85,0.3,1.57,0.89,2.17c0.59,0.59,1.3,0.89,2.13,0.89h28.04
		c1.66,0,3.08,0.59,4.26,1.78s1.78,2.6,1.78,4.26v12.14c0,1.66-0.59,3.09-1.78,4.3c-1.18,1.16-2.6,1.74-4.26,1.74H1015.69z"/>
</g>
<g>
	
		<linearGradient id="SVGID_00000054246781510622704210000006091601077808731021_" gradientUnits="userSpaceOnUse" x1="186.8121" y1="202.3921" x2="1090.3416" y2="529.9216">
		<stop  offset="0" style="stop-color:#2B6CF5"/>
		<stop  offset="1" style="stop-color:#A355F6"/>
	</linearGradient>
	<path style="fill:url(#SVGID_00000054246781510622704210000006091601077808731021_);" d="M605.24,402.43v-15.44h60.44
		c1.41,0,2.61-0.48,3.62-1.45c1-1.04,1.51-2.27,1.51-3.68c0-1.41-0.5-2.61-1.51-3.62c-1-1-2.21-1.51-3.62-1.51h-47.65
		c-2.82,0-5.25-1-7.3-3.02c-1.97-2.01-2.96-4.44-2.96-7.3v-20.57c0-2.81,0.99-5.25,2.96-7.3c2.05-2.01,4.48-3.02,7.3-3.02h69.49
		v15.44h-54.04c-1.41,0-2.61,0.5-3.62,1.51c-1.01,1-1.51,2.21-1.51,3.62c0,1.45,0.5,2.67,1.51,3.68c1,1.01,2.21,1.51,3.62,1.51
		h47.65c2.81,0,5.23,1.01,7.24,3.02c2.01,2.01,3.02,4.42,3.02,7.24v20.63c0,2.82-1,5.25-3.02,7.3c-2.01,1.97-4.42,2.96-7.24,2.96
		H605.24z"/>
	
		<linearGradient id="SVGID_00000124149670350163815700000013520721428413035419_" gradientUnits="userSpaceOnUse" x1="197.5313" y1="172.8218" x2="1101.0608" y2="500.3513">
		<stop  offset="0" style="stop-color:#2B6CF5"/>
		<stop  offset="1" style="stop-color:#A355F6"/>
	</linearGradient>
	<path style="fill:url(#SVGID_00000124149670350163815700000013520721428413035419_);" d="M700.42,402.43v-66.89h74.61
		c2.81,0,5.25,1,7.3,3.02c2.01,2.01,3.02,4.44,3.02,7.3v20.57c0,2.86-1.01,5.29-3.02,7.3c-2.05,2.01-4.48,3.02-7.3,3.02h-54.04v25.7
		H700.42z M759.6,361.29c1.41,0,2.61-0.5,3.62-1.51c1-1,1.51-2.23,1.51-3.68c0-1.41-0.5-2.61-1.51-3.62s-2.21-1.51-3.62-1.51h-38.6
		v10.31H759.6z"/>
	
		<linearGradient id="SVGID_00000140009434045018315580000003043324551630741412_" gradientUnits="userSpaceOnUse" x1="208.6604" y1="142.121" x2="1112.1898" y2="469.6504">
		<stop  offset="0" style="stop-color:#2B6CF5"/>
		<stop  offset="1" style="stop-color:#A355F6"/>
	</linearGradient>
	<path style="fill:url(#SVGID_00000140009434045018315580000003043324551630741412_);" d="M803.33,402.43
		c-2.86,0-5.29-0.99-7.3-2.96c-1.97-2.05-2.96-4.48-2.96-7.3v-20.57c0-2.85,0.99-5.29,2.96-7.3c2.01-2.01,4.44-3.02,7.3-3.02h52.78
		c2.81,0,5.23,1.01,7.24,3.02c0.16,0.12,0.32,0.26,0.48,0.42v-3.44c0-2.85-1.03-5.29-3.08-7.3c-2.01-2.01-4.42-3.02-7.24-3.02
		h-59.17v-15.44h69.49c5.67,0,10.52,2.01,14.54,6.03c4.02,4.02,6.03,8.87,6.03,14.54v46.32h-20.57v-3.44
		c-0.16,0.16-0.32,0.32-0.48,0.48c-2.01,1.97-4.42,2.96-7.24,2.96H803.33z M856.1,386.99c1.41,0,2.61-0.48,3.62-1.45
		c1-1.04,1.51-2.27,1.51-3.68c0-1.41-0.5-2.61-1.51-3.62c-1-1-2.21-1.51-3.62-1.51h-37.34c-1.41,0-2.63,0.5-3.68,1.51
		c-0.96,1.01-1.45,2.21-1.45,3.62c0,1.41,0.48,2.63,1.45,3.68c1.04,0.96,2.27,1.45,3.68,1.45H856.1z"/>
	
		<linearGradient id="SVGID_00000151527827351068914700000018077605557543736982_" gradientUnits="userSpaceOnUse" x1="220.9596" y1="108.1921" x2="1124.489" y2="435.7215">
		<stop  offset="0" style="stop-color:#2B6CF5"/>
		<stop  offset="1" style="stop-color:#A355F6"/>
	</linearGradient>
	<path style="fill:url(#SVGID_00000151527827351068914700000018077605557543736982_);" d="M915.27,402.43
		c-5.71,0-10.56-2.01-14.54-6.03c-4.02-4.02-6.03-8.87-6.03-14.54v-25.76c0-5.67,2.01-10.51,6.03-14.54
		c4.02-4.02,8.87-6.03,14.54-6.03h54.04v15.44h-43.73c-2.86,0-5.29,1.01-7.3,3.02s-3.02,4.44-3.02,7.3v15.44c0,2.82,1,5.25,3.02,7.3
		c2.01,1.97,4.44,2.96,7.3,2.96h43.73v15.44H915.27z"/>
	
		<linearGradient id="SVGID_00000072270719163319583760000009748966714975553456_" gradientUnits="userSpaceOnUse" x1="230.4443" y1="82.0275" x2="1133.9738" y2="409.5569">
		<stop  offset="0" style="stop-color:#2B6CF5"/>
		<stop  offset="1" style="stop-color:#A355F6"/>
	</linearGradient>
	<path style="fill:url(#SVGID_00000072270719163319583760000009748966714975553456_);" d="M997.61,402.43
		c-5.71,0-10.56-2.01-14.54-6.03c-4.02-4.02-6.03-8.87-6.03-14.54v-25.76c0-5.67,2.01-10.51,6.03-14.54
		c4.02-4.02,8.87-6.03,14.54-6.03h48.92c5.67,0,10.52,2.01,14.54,6.03c4.02,4.02,6.03,8.87,6.03,14.54v10.31c0,2.86-1,5.29-3.02,7.3
		s-4.44,3.02-7.3,3.02h-59.17v5.13c0,1.41,0.5,2.63,1.51,3.68c1,0.96,2.21,1.45,3.62,1.45h63.09v15.44H997.61z M1046.53,361.29
		v-5.19c0-1.41-0.5-2.61-1.51-3.62c-1.05-1-2.27-1.51-3.68-1.51h-38.6c-1.41,0-2.61,0.5-3.62,1.51c-1.01,1-1.51,2.21-1.51,3.62v5.19
		H1046.53z"/>
</g>
</svg>
